<?xml version="1.0" encoding="iso-8859-1"?>
<!-- Generator: Adobe Illustrator 19.0.0, SVG Export Plug-In . SVG Version: 6.00 Build 0)  -->
<svg version="1.1" id="Layer_1" xmlns="http://www.w3.org/2000/svg" xmlns:xlink="http://www.w3.org/1999/xlink" x="0px" y="0px"
	 viewBox="0 0 512.001 512.001" style="enable-background:new 0 0 512.001 512.001;" xml:space="preserve">
<path style="fill:#DA4453;" d="M215.5,3.85l0.031,0.031c0.047-0.219,0.125-0.406,0.219-0.594c2.921-5.843,25.078-3.687,49.498,4.812
	c23.765,8.281,40.905,19.5,39.093,25.5l-25.875,178.246l-102.809-11.312L215.5,3.85z"/>
<path style="fill:#CC374D;" d="M190.032,73.317h-0.016c-0.031-0.25-0.062-0.469-0.125-0.719c-1.922-7.219-22.015-8.219-44.89-2.156
	c-22.281,5.875-38.968,16.25-38.077,23.468l1.625,210.994l93.404,2.969L190.032,73.317z"/>
<g>
	<path id="SVGCleanerId_0" style="fill:#ED5564;" d="M329.231,40.286C330.341,39.661,328.028,40.755,329.231,40.286L329.231,40.286z
		"/>
</g>
<path style="fill:#ED5564;" d="M328.247,145.658l33.779-32.873c0,0,33.781-22.594,13.547-48
	c-13.703-17.25-33.608-38.968-51.076-32.03C205.625,80.316,161.798,173.908,161.798,173.908s-63.17-62.654-71.279-37.999
	C-26.65,491.869,318.763,540.617,411.87,500.025C470.884,474.275,457.571,210.345,328.247,145.658z"/>
<g>
	<path id="SVGCleanerId_0_1_" style="fill:#ED5564;" d="M329.231,40.286C330.341,39.661,328.028,40.755,329.231,40.286
		L329.231,40.286z"/>
</g>
<g style="opacity:0.1;">
	<path style="fill:#FFFFFF;" d="M106.424,131.94c-7.703-2.969-13.75-2.594-15.906,3.969
		C-26.65,491.869,318.763,540.617,411.87,500.025c7.452-3.25,13.749-10.312,18.812-20.281
		C335.653,517.743,6.927,469.057,106.424,131.94z"/>
</g>
<g>
	<path id="SVGCleanerId_0_2_" style="fill:#ED5564;" d="M329.231,40.286C330.341,39.661,328.028,40.755,329.231,40.286
		L329.231,40.286z"/>
</g>
<path style="fill:#DA4453;" d="M328.247,145.658l2.531-2.469c-7.203,6.031-19.453,17.781-30.5,35.562
	c-15.188,24.468-30.999,65.561-20,122.434c0.984,5.094,5.453,8.656,10.453,8.656c0.672,0,1.359-0.062,2.031-0.219
	c5.797-1.094,9.578-6.688,8.453-12.469c-7.703-39.873-2.094-75.623,16.688-106.34c11.625-19,25.015-30.188,29.468-33.594
	C341.293,152.877,334.935,149.002,328.247,145.658z"/>
<g>
</g>
<g>
</g>
<g>
</g>
<g>
</g>
<g>
</g>
<g>
</g>
<g>
</g>
<g>
</g>
<g>
</g>
<g>
</g>
<g>
</g>
<g>
</g>
<g>
</g>
<g>
</g>
<g>
</g>
</svg>
