<svg width="48px" height="48px" viewBox="0 0 48 48" xmlns="http://www.w3.org/2000/svg"><title>Free Medical icons</title><path d="M42.38,45.93c1.36-.43,1.86-2.41,2.16-3.65,2.53-10.74,4.08-17.33.41-24.78-1.79-3.63-4.42-6.63-5.25-6.25s1.48,5,.58,11.83c-0.34,2.61-.77,5.86-3.08,8.83-2.54,3.27-5.45,3.75-5.42,5.83,0,1.06,1.28,2.14,3.8,4.25C39.13,45,40.92,46.4,42.38,45.93Z" fill="#a6c7ff"/><path d="M5.82,45.93C4.46,45.5,4,43.53,3.66,42.28,1.13,31.55-.42,24.95,3.25,17.5,5,13.87,7.67,10.87,8.5,11.25s-1.48,5-.58,11.83c0.34,2.61.77,5.86,3.08,8.83,2.54,3.27,5.45,3.75,5.42,5.83,0,1.06-1.28,2.14-3.8,4.25C9.06,45,7.27,46.4,5.82,45.93Z" fill="#a6c7ff"/><path d="M5.2,48a3.11,3.11,0,0,1-1-.19h0C3,47.4,1.38,46.16.7,42.66l0-.13A82,82,0,0,1,.24,25.79C0.8,18.68,2,15.72,2.86,14.11a22.73,22.73,0,0,1,9.09-9l0.37-.21,0.43,0a5,5,0,0,1,5.41,4.54L19.9,29.19A14.53,14.53,0,0,1,17.77,39c-0.84,1.26-2.2,2.36-4.9,4.55C8.65,47,6.65,48,5.2,48ZM4.63,42a4.67,4.67,0,0,0,.73,2,24.87,24.87,0,0,0,5-3.47,24.84,24.84,0,0,0,4.09-3.66,10.64,10.64,0,0,0,1.47-7.2L14.18,9.7A1,1,0,0,0,13.83,9a1,1,0,0,0-.4-0.2,18.33,18.33,0,0,0-7,7.16C6,16.73,4.79,19,4.23,26.1A77.93,77.93,0,0,0,4.63,42Z" fill="#2161ff"/><path d="M24,22a2,2,0,0,1-2-2V2a2,2,0,0,1,4,0V20A2,2,0,0,1,24,22Z" fill="#2161ff"/><path d="M42.8,48c-1.44,0-3.44-1-7.67-4.46-2.7-2.19-4.06-3.29-4.9-4.55a14.57,14.57,0,0,1-2.12-9.84L29.83,9.35a5,5,0,0,1,5.41-4.54l0.43,0L36,5.06a22.73,22.73,0,0,1,9.09,9c0.86,1.61,2.06,4.58,2.62,11.68a82,82,0,0,1-.43,16.75l0,0.13c-0.68,3.5-2.26,4.74-3.46,5.16h0A3.11,3.11,0,0,1,42.8,48ZM34.57,8.82a1,1,0,0,0-.4.2,1,1,0,0,0-.35.68L32.08,29.54a10.68,10.68,0,0,0,1.47,7.24,24.84,24.84,0,0,0,4.09,3.66,24.87,24.87,0,0,0,5,3.47,4.67,4.67,0,0,0,.73-2,77.93,77.93,0,0,0,.4-15.86C43.21,19,42,16.73,41.61,16A18.32,18.32,0,0,0,34.57,8.82Z" fill="#2161ff"/><path d="M29.8,25.49a2,2,0,0,1-1-.29L24,22.34,19.23,25.2a2,2,0,1,1-2.06-3.43L24,17.67l6.83,4.1A2,2,0,0,1,29.8,25.49Z" fill="#2161ff"/><rect width="48" height="48" fill="none"/></svg>